<svg xmlns="http://www.w3.org/2000/svg" width="760" height="460">
<rect width="100%" height="100%" fill="white"/>
<text x="380.0" y="28" text-anchor="middle" font-size="18">Oracle quality versus estimated transfer</text>
<line x1="90" y1="50" x2="90" y2="390" stroke="black"/>
<line x1="90" y1="390" x2="730" y2="390" stroke="black"/>
<text x="380.0" y="440" text-anchor="middle">Estimated transfer bytes/token</text>
<text x="18" y="230.0" transform="rotate(-90 18 230.0)" text-anchor="middle">Exact token rate</text>
<circle cx="730.00" cy="50.00" r="4" fill="#2563eb"/>
<title>natural:h=1:rho=1</title>
<circle cx="730.00" cy="50.00" r="4" fill="#2563eb"/>
<title>lossless_fallback:h=1:rho=1</title>
<circle cx="730.00" cy="50.00" r="4" fill="#2563eb"/>
<title>masked_substitution:h=1:rho=1</title>
<circle cx="730.00" cy="50.00" r="4" fill="#2563eb"/>
<title>masked_truncation_preserve:h=1:rho=1</title>
<circle cx="730.00" cy="50.00" r="4" fill="#2563eb"/>
<title>masked_truncation_renormalize:h=1:rho=1</title>
<circle cx="530.00" cy="50.00" r="4" fill="#2563eb"/>
<title>natural:h=1:rho=1.5</title>
<circle cx="530.00" cy="50.00" r="4" fill="#2563eb"/>
<title>lossless_fallback:h=1:rho=1.5</title>
<circle cx="530.00" cy="50.00" r="4" fill="#2563eb"/>
<title>masked_substitution:h=1:rho=1.5</title>
<circle cx="530.00" cy="50.00" r="4" fill="#2563eb"/>
<title>masked_truncation_preserve:h=1:rho=1.5</title>
<circle cx="530.00" cy="50.00" r="4" fill="#2563eb"/>
<title>masked_truncation_renormalize:h=1:rho=1.5</title>
<circle cx="410.00" cy="50.00" r="4" fill="#2563eb"/>
<title>natural:h=1:rho=2</title>
<circle cx="410.00" cy="50.00" r="4" fill="#2563eb"/>
<title>lossless_fallback:h=1:rho=2</title>
<circle cx="410.00" cy="50.00" r="4" fill="#2563eb"/>
<title>masked_substitution:h=1:rho=2</title>
<circle cx="410.00" cy="50.00" r="4" fill="#2563eb"/>
<title>masked_truncation_preserve:h=1:rho=2</title>
<circle cx="410.00" cy="50.00" r="4" fill="#2563eb"/>
<title>masked_truncation_renormalize:h=1:rho=2</title>
<circle cx="370.00" cy="50.00" r="4" fill="#2563eb"/>
<title>natural:h=2:rho=1</title>
<circle cx="610.00" cy="50.00" r="4" fill="#2563eb"/>
<title>lossless_fallback:h=2:rho=1</title>
<circle cx="370.00" cy="50.00" r="4" fill="#2563eb"/>
<title>masked_substitution:h=2:rho=1</title>
<circle cx="370.00" cy="50.00" r="4" fill="#2563eb"/>
<title>masked_truncation_preserve:h=2:rho=1</title>
<circle cx="370.00" cy="50.00" r="4" fill="#2563eb"/>
<title>masked_truncation_renormalize:h=2:rho=1</title>
<circle cx="450.00" cy="50.00" r="4" fill="#2563eb"/>
<title>natural:h=2:rho=1.5</title>
<circle cx="450.00" cy="50.00" r="4" fill="#2563eb"/>
<title>lossless_fallback:h=2:rho=1.5</title>
<circle cx="450.00" cy="50.00" r="4" fill="#2563eb"/>
<title>masked_substitution:h=2:rho=1.5</title>
<circle cx="450.00" cy="50.00" r="4" fill="#2563eb"/>
<title>masked_truncation_preserve:h=2:rho=1.5</title>
<circle cx="450.00" cy="50.00" r="4" fill="#2563eb"/>
<title>masked_truncation_renormalize:h=2:rho=1.5</title>
<circle cx="410.00" cy="50.00" r="4" fill="#2563eb"/>
<title>natural:h=2:rho=2</title>
<circle cx="410.00" cy="50.00" r="4" fill="#2563eb"/>
<title>lossless_fallback:h=2:rho=2</title>
<circle cx="410.00" cy="50.00" r="4" fill="#2563eb"/>
<title>masked_substitution:h=2:rho=2</title>
<circle cx="410.00" cy="50.00" r="4" fill="#2563eb"/>
<title>masked_truncation_preserve:h=2:rho=2</title>
<circle cx="410.00" cy="50.00" r="4" fill="#2563eb"/>
<title>masked_truncation_renormalize:h=2:rho=2</title>
<circle cx="290.00" cy="50.00" r="4" fill="#2563eb"/>
<title>natural:h=4:rho=1</title>
<circle cx="570.00" cy="50.00" r="4" fill="#2563eb"/>
<title>lossless_fallback:h=4:rho=1</title>
<circle cx="290.00" cy="135.00" r="4" fill="#2563eb"/>
<title>masked_substitution:h=4:rho=1</title>
<circle cx="290.00" cy="50.00" r="4" fill="#2563eb"/>
<title>masked_truncation_preserve:h=4:rho=1</title>
<circle cx="290.00" cy="135.00" r="4" fill="#2563eb"/>
<title>masked_truncation_renormalize:h=4:rho=1</title>
<circle cx="410.00" cy="50.00" r="4" fill="#2563eb"/>
<title>natural:h=4:rho=1.5</title>
<circle cx="490.00" cy="50.00" r="4" fill="#2563eb"/>
<title>lossless_fallback:h=4:rho=1.5</title>
<circle cx="410.00" cy="50.00" r="4" fill="#2563eb"/>
<title>masked_substitution:h=4:rho=1.5</title>
<circle cx="410.00" cy="50.00" r="4" fill="#2563eb"/>
<title>masked_truncation_preserve:h=4:rho=1.5</title>
<circle cx="410.00" cy="50.00" r="4" fill="#2563eb"/>
<title>masked_truncation_renormalize:h=4:rho=1.5</title>
<circle cx="410.00" cy="50.00" r="4" fill="#2563eb"/>
<title>natural:h=4:rho=2</title>
<circle cx="410.00" cy="50.00" r="4" fill="#2563eb"/>
<title>lossless_fallback:h=4:rho=2</title>
<circle cx="410.00" cy="50.00" r="4" fill="#2563eb"/>
<title>masked_substitution:h=4:rho=2</title>
<circle cx="410.00" cy="50.00" r="4" fill="#2563eb"/>
<title>masked_truncation_preserve:h=4:rho=2</title>
<circle cx="410.00" cy="50.00" r="4" fill="#2563eb"/>
<title>masked_truncation_renormalize:h=4:rho=2</title>
</svg>
