<svg xmlns="http://www.w3.org/2000/svg" width="800" height="360">
<rect width="100%" height="100%" fill="white"/>
<text x="400.0" y="25" text-anchor="middle">Primary results (saved tables only)</text>
<line x1="50" y1="310" x2="750"
y2="310" stroke="black"/>
<rect x="50.00" y="310.00" width="32.84" height="0.00" fill="#2864dc"><title>factorial:scsp_cosine_absolute_tolerance run=e0b65f89579f4312</title></rect><rect x="86.84" y="310.00" width="32.84" height="0.00" fill="#2864dc"><title>factorial:num_examples run=e0b65f89579f4312</title></rect><rect x="123.68" y="309.80" width="32.84" height="0.20" fill="#2864dc"><title>factorial:num_metric_rows run=e0b65f89579f4312</title></rect><rect x="160.53" y="310.00" width="32.84" height="0.00" fill="#2864dc"><title>oracle:mean_full_mass_coverage run=0a60149a83fdd7cd</title></rect><rect x="197.37" y="310.00" width="32.84" height="0.00" fill="#2864dc"><title>oracle:mean_selected_mass_coverage run=0a60149a83fdd7cd</title></rect><rect x="234.21" y="310.00" width="32.84" height="0.00" fill="#2864dc"><title>oracle:mean_hit_rate run=0a60149a83fdd7cd</title></rect><rect x="271.05" y="310.00" width="32.84" height="0.00" fill="#2864dc"><title>oracle:num_windows run=0a60149a83fdd7cd</title></rect><rect x="307.89" y="309.99" width="32.84" height="0.01" fill="#2864dc"><title>probe:equal_cost_ceiling_us run=f6c02de6a17710dc</title></rect><rect x="344.74" y="310.00" width="32.84" height="0.00" fill="#2864dc"><title>probe:target_fingerprint_verified run=f6c02de6a17710dc</title></rect><rect x="381.58" y="307.30" width="32.84" height="2.70" fill="#2864dc"><title>runtime:median_h2d_bytes run=4b9d75cbe9f0228c</title></rect><rect x="418.42" y="310.00" width="32.84" height="0.00" fill="#2864dc"><title>runtime:median_exposed_stall_ms run=4b9d75cbe9f0228c</title></rect><rect x="455.26" y="310.00" width="32.84" height="0.00" fill="#2864dc"><title>runtime:median_tpot_ms run=4b9d75cbe9f0228c</title></rect><rect x="492.11" y="50.00" width="32.84" height="260.00" fill="#2864dc"><title>runtime:peak_allocated_bytes run=4b9d75cbe9f0228c</title></rect><rect x="528.95" y="309.99" width="32.84" height="0.01" fill="#2864dc"><title>simulator:scenarios run=5e50b39e216aaa94</title></rect><rect x="565.79" y="310.00" width="32.84" height="0.00" fill="#2864dc"><title>simulator:route_tokens run=5e50b39e216aaa94</title></rect><rect x="602.63" y="310.00" width="32.84" height="0.00" fill="#2864dc"><title>static:scenarios run=347ff8a5163a677f</title></rect><rect x="639.47" y="310.00" width="32.84" height="0.00" fill="#2864dc"><title>static:termination_events run=347ff8a5163a677f</title></rect><rect x="676.32" y="309.99" width="32.84" height="0.01" fill="#2864dc"><title>static:replan_events run=347ff8a5163a677f</title></rect><rect x="713.16" y="310.00" width="32.84" height="0.00" fill="#2864dc"><title>support:completed run=f0ea1684d396c63f</title></rect></svg>
